<svg xmlns="http://www.w3.org/2000/svg" viewBox="0 0 32 32">
  <rect width="32" height="32" rx="6" fill="#f2f4f7" />
  <path
    fill="#3470ff"
    transform="translate(3.85 1.5) scale(0.8)"
    d="M13.443 21.675h-3.783v9.852h-7.094v-26.798h10.719c3.836 0 6.634 0.657 8.394 1.97 1.76 1.287 2.64 3.324 2.64 6.108 0 3.626-1.327 6.056-3.98 7.291l7.527 11.429h-8.197l-6.227-9.852zM9.66 16.749h3.626c1.392 0 2.391-0.289 2.995-0.867 0.631-0.578 0.946-1.471 0.946-2.68 0-1.261-0.302-2.167-0.906-2.719s-1.616-0.828-3.034-0.828h-3.626v7.094z"
  />
</svg>
